<?xml version="1.0" encoding="UTF-8"?>
<svg xmlns="http://www.w3.org/2000/svg" xmlns:xlink="http://www.w3.org/1999/xlink" width="32pt" height="32pt" viewBox="0 0 32 32" version="1.1">
<g id="surface300783">
<path style=" stroke:none;fill-rule:nonzero;fill:rgb(100%,100%,100%);fill-opacity:1;" d="M 16 5 C 12.746094 5 8.3125 5.050781 7.414062 5.132812 C 6.402344 5.738281 4.402344 8.03125 4.382812 8.625 L 4.382812 9.625 C 4.382812 10.890625 5.566406 12 6.636719 12 C 7.917969 12 8.992188 10.929688 8.992188 9.667969 C 8.992188 10.929688 10.03125 12 11.3125 12 C 12.605469 12 13.605469 10.929688 13.605469 9.667969 C 13.605469 10.929688 14.695312 12 15.988281 12 L 16.011719 12 C 17.304688 12 18.394531 10.929688 18.394531 9.667969 C 18.394531 10.929688 19.402344 12 20.6875 12 C 21.96875 12 23.011719 10.929688 23.011719 9.667969 C 23.011719 10.929688 24.082031 12 25.363281 12 C 26.433594 12 27.617188 10.890625 27.617188 9.625 L 27.617188 8.625 C 27.59375 8.03125 25.597656 5.738281 24.585938 5.132812 C 21.445312 5.019531 19.253906 5 16 5 Z M 13.550781 11.742188 C 12.496094 13.550781 9.851562 13.574219 8.820312 11.753906 C 8.191406 12.847656 6.765625 13.265625 6.15625 13.0625 C 5.976562 14.960938 5.851562 24.707031 7.148438 26.34375 C 10.945312 27.230469 21.164062 27.210938 24.855469 26.34375 C 26.347656 24.820312 26.015625 14.820312 25.847656 13.0625 C 25.234375 13.265625 23.808594 12.847656 23.191406 11.753906 C 22.144531 13.574219 19.5 13.550781 18.449219 11.742188 C 18.125 12.332031 17.367188 13.109375 16 13.109375 C 14.996094 13.148438 14.050781 12.605469 13.550781 11.742188 Z M 11.417969 14 C 12.21875 14 12.949219 14 13.832031 14.980469 C 15.28125 14.832031 16.71875 14.832031 18.167969 14.980469 C 19.058594 14.011719 19.78125 14.007812 20.582031 14.007812 C 23.160156 14.007812 23.78125 17.820312 24.710938 21.097656 C 25.550781 24.148438 24.429688 24.230469 23.039062 24.230469 C 20.96875 24.152344 19.820312 22.652344 19.820312 21.140625 C 17.890625 21.460938 14.808594 21.582031 12.179688 21.140625 C 12.179688 22.652344 11.03125 24.152344 8.960938 24.230469 C 7.570312 24.230469 6.449219 24.148438 7.289062 21.097656 C 8.21875 17.800781 8.839844 14.007812 11.421875 14.007812 Z M 16 16.875 C 16 16.875 14.304688 18.4375 14 18.984375 L 15.105469 18.941406 L 15.105469 19.910156 C 15.105469 19.96875 15.925781 19.917969 16 19.917969 C 16.445312 19.933594 16.894531 19.949219 16.894531 19.910156 L 16.894531 18.941406 L 18 18.984375 C 17.695312 18.4375 16 16.875 16 16.875 Z M 16 16.875 "/>
</g>
</svg>
