<?xml version="1.0" encoding="UTF-8" standalone="no"?>
<!DOCTYPE svg PUBLIC "-//W3C//DTD SVG 1.1//EN" "http://www.w3.org/Graphics/SVG/1.1/DTD/svg11.dtd">
<svg width="100%" height="100%" viewBox="0 0 690 280" version="1.1" xmlns="http://www.w3.org/2000/svg" xmlns:xlink="http://www.w3.org/1999/xlink" xml:space="preserve" xmlns:serif="http://www.serif.com/" style="fill-rule:evenodd;clip-rule:evenodd;stroke-linejoin:round;stroke-miterlimit:2;">
    <g transform="matrix(1,0,0,1,-8165,-10178)">
        <g transform="matrix(0.487805,0,0,1,6985.61,9818)">
            <g id="logo" transform="matrix(1.36436,0,0,0.66554,2550.74,208.517)">
                <g id="box" transform="matrix(2.49379,0,0,2.49379,-3537.77,-1296.81)">
                    <path d="M1509.43,755.238L1770.17,755.238L1770.17,636.045L1569.79,636.045L1582.12,611.296L1794.92,611.296L1794.92,779.986L1496.37,779.986L1509.43,755.238Z" style="fill:rgb(255,1,55);"/>
                </g>
                <g id="X" transform="matrix(0.94811,-5.55112e-17,1.55431e-15,0.936551,120.75,193.519)">
                    <path d="M387.422,171.197L428.76,212.536L380.532,260.764L428.76,308.993L387.422,350.331L339.193,302.103L290.965,350.331L249.626,308.993L297.855,260.764L249.626,212.536L290.965,171.197L339.193,219.425L387.422,171.197Z" style="fill:rgb(255,1,55);"/>
                </g>
                <g id="buttons" transform="matrix(1,-1.47105e-15,1.47105e-15,1,-4.03588e-12,3.84952)">
                    <g id="top" transform="matrix(1.79842,0,0,1.79842,-463.892,-1022.92)">
                        <circle cx="666.737" cy="774.283" r="17.948" style="fill:rgb(255,1,55);"/>
                    </g>
                    <g id="bottom" transform="matrix(1.79842,0,0,1.79842,-463.892,-893.802)">
                        <circle cx="666.737" cy="774.283" r="17.948" style="fill:rgb(255,1,55);"/>
                    </g>
                    <g id="top1" serif:id="top" transform="matrix(-4.4499e-16,1.79842,-1.79842,-4.4499e-16,2192.22,-764.947)">
                        <circle cx="666.737" cy="774.283" r="17.948" style="fill:rgb(255,1,55);"/>
                    </g>
                    <g id="bottom1" serif:id="bottom" transform="matrix(1.65632e-16,1.79842,-1.79842,1.65632e-16,2063.1,-764.947)">
                        <circle cx="666.737" cy="774.283" r="17.948" style="fill:rgb(255,1,55);"/>
                    </g>
                </g>
                <g id="double-slash" serif:id="double slash" transform="matrix(1.7865,0,0,1.7865,-462.779,-516.397)">
                    <g id="slash_R" transform="matrix(0.45237,0.261176,-0.265194,0.45933,427.767,247.251)">
                        <path d="M189.681,260.557L125.419,297.097L152.716,794.2L216.99,757.68L189.681,260.557Z" style="fill:rgb(255,1,55);"/>
                    </g>
                    <g id="slash_L" transform="matrix(0.45237,0.261176,-0.265194,0.45933,346.518,247.251)">
                        <path d="M189.681,260.557L125.419,297.097L152.716,794.2L216.99,757.68L189.681,260.557Z" style="fill:rgb(255,1,55);"/>
                    </g>
                </g>
            </g>
        </g>
    </g>
</svg>
